# xmcd CD database file
#
# Track frame offsets:
#	150
#	17930
#	33287
#	51065
#
# Disc length: 880 seconds
#
# Revision: 0
# Processed by: cddbd v1.5.1PL0 Copyright (c) Steve Scherf et al.
# Submitted via: CDex 1.51
#
DISCID=29036e04
DTITLE=田中昌之 and 大門一也 - ウルトラマンガイア
DYEAR=1900
DGENRE=Anime
TTITLE0=ウルトラマンガイア!
TTITLE1=ガイア ノ チカラ
TTITLE2=ウルトラマンガイア!(カラオケ)
TTITLE3=ガイア ノ チカラ
EXTD=
EXTT0=
EXTT1=
EXTT2=
EXTT3=
PLAYORDER=
